<svg xmlns="http://www.w3.org/2000/svg" xmlns:xlink="http://www.w3.org/1999/xlink" width="645" height="900" viewBox="0 0 645 900"><defs><style>.a{fill:#442460;}.b{isolation:isolate;clip-path:url(#a);}.c{fill:rgba(0,0,0,0);stroke-miterlimit:10;}.c,.d{stroke:#2e1756;stroke-width:2px;}.d{fill:none;}</style><clipPath id="a"><rect class="a" width="645" height="900" transform="translate(955)"/></clipPath></defs><g class="b" transform="translate(-955)"><g transform="matrix(0.07, 0.998, -0.998, 0.07, 2136.487, -272.5)"><path class="c" d="M884.672,571.078c.08-20.835,31.857-44.264,45.432-56.346,26.84-23.892,54.755-45.955,82.41-68.37s55.387-44.77,81.759-69.379c17.123-15.974,37.244-33.966,48.856-56.777,24.74-48.611-53.261-41.392-73.466-42.455-51.4-2.716-110.355-1.475-158.534-26.79-28.761-15.112-40.23-40.456-34.053-77.394,1.992-12.013,7.885-25.836,2.892-37.539-5.331-12.5-17.6-19.712-27.775-24.548-37.128-17.621-79.817-19.663-119.1-21.875-42.36-2.431-85.118-1.72-127.18-1.908-17.835-.079-36.461-7.9-53.446-14.255C530.2,65.111,508.2,55.753,486.119,46.706,437.542,26.849,387.483,5.934,336.092.892,303.907-2.268,268.729,2,243.727,29.487,231.174,43.283,224.6,63.8,217.345,82.022c-8.786,22.014-17.223,44.242-26.576,65.91-30.13,69.786-73.147,137.98-142.969,141.407-10.563.516-20.936-1.166-31.449-1.483-6.7-.195-12.653,1.78-15.142,10.328-6.257,21.443,13.41,55.294,21.473,72.308C40.338,407.735,60.249,443.308,78.9,479.8c12.339,24.135,33.7,57.117,33.923,86.441.2,26.128-28.273,45.013-43.774,57.882-14.525,12.049-40.842,28.911-42.435,53.423-.772,11.885,5.65,21.735,12.355,29.379,11.752,13.368,25.291,22.8,35.864,38.05C92.168,770,106.654,804.425,104.3,838.143c-1.633,23.364-12.553,38.664-26.447,53.289-5.838,6.149-10.578,10.5-10.886,20.483-.5,15.853,4.589,32.63,8.779,47.328,14.993,52.6,36.287,103.467,59.978,150.96,11.837,23.734,24.624,47.395,40.319,67.641,10.281,13.294,24.144,29.117,39.82,29.1,18.154,0,37.362-8,55.008-13.976,32.961-11.174,65.52-24.092,97.949-37.344q112.5-45.992,222.875-99.433c51.832-25.138,104.765-50.314,153.5-83.734a176.317,176.317,0,0,0,26.79-22.853c8.885-9.074,19.911-13.132,31.091-16.156,69.389-18.782,145.409-4.363,215.086,4.679,17.686,2.291,35.371,4.594,53.107,6.2,15.247,1.38,33.5,5.335,48.318-.608,29.2-11.7,3.673-54.808-7.118-72.372-37.994-61.851-87.015-114.18-132.451-167.6-21.6-25.442-43.37-50.816-63.8-77.7C905.578,612.069,884.6,589.344,884.672,571.078Z" transform="translate(1396.545 1580.241) rotate(180)"/><path class="c" d="M833.225,525.519c11.646-22.047,32.079-38.343,49.039-53.679,24.407-22.078,49.582-42.928,74.378-64.381,23.446-20.288,46.942-40.8,68.654-63.84,13.24-14.048,29.852-30.848,36.123-51.626,13.6-45.036-59.578-38.2-77.645-39.381-44.914-2.916-95.833-3.583-137.388-27.3-25.946-14.807-36.606-39.363-31.072-73.454,1.913-11.8,5.36-21.865,1-33.6-5.046-13.58-16.651-22.047-27.291-28.024C755.69,71.515,716.3,67.536,680.167,64.226c-37.323-3.42-76.209-5.828-112.334-3.329-14.445,1-31.072-4.658-45.371-9-22-6.681-43.769-14.386-65.659-21.555C412.322,15.77,366.685,1.728,320.411.13,287-1.024,252.17,5.232,224.376,29.411c-28.168,24.519-40.666,62.528-56.29,98.66-26.978,62.467-63.414,138.417-125.827,151.615-9.464,2-18.559.917-28.014,1.409-4.862.249-10.4,1.039-12.861,6.888-6.4,15.184,11.14,42.947,17.042,54.577C34.734,374.7,53.07,405.268,70.16,436.792c13.574,25.029,30.778,52.841,36.028,82.51,6.371,36-35.256,61.623-49.9,86.974C30.914,650.236,79,675.284,102.7,696.244c27.223,24.064,49.691,67.964,25.289,105.195-9.335,14.238-20.821,22.722-24.99,41.3-6.52,29.056-1.589,62.26,3.7,90.983,7.968,43.177,20.583,85.887,37.727,124.91,12.283,27.938,32.661,71.748,62.5,68.462,20.089-2.193,40.511-10.2,60.072-17.285,29.288-10.6,58.208-22.679,86.975-35.227,66.41-28.882,132.081-60.732,196.46-95.765C594.367,954.9,716.9,857.185,726.122,853.7c27.49-10.386,58.747-8.558,87.09-6.948,37.7,2.139,75.214,7.677,112.7,12.809,17.842,2.429,35.775,5.4,53.708,6.6,12.763.851,29.532,1.579,40.715-7.476,21.827-17.668-2.491-58.094-12.548-75.2-30.808-52.434-69.78-97.84-106.321-144.266-17.932-22.8-36.138-45.552-52.416-70.175C842.485,559.1,826.027,539.136,833.225,525.519Z" transform="translate(1358.191 1538.194) rotate(180)"/><path class="c" d="M791.247,489.145c31.8-44.117,73.1-77.38,110.985-114.226,19.015-18.5,31.2-44.454,47.6-66.486,8.531-11.458,19.181-25.948,20.828-41.92,4.392-42.728-61.567-36.95-81.31-38.572-38.169-3.147-81.289-5.533-115.917-27.338-21.157-13.33-31.575-35.207-27.621-63.962,1.753-12.758,4.483-23.6,0-36.123-4.542-12.689-14-21.646-23.587-28.36-27.536-19.308-61.756-25.48-92.759-30.079a614.811,614.811,0,0,0-109.633-6.258c-32.073,1.027-63.993-10.522-95.309-18.135C383.036,7.606,340.8-1.2,298.344.134c-33.528,1.057-67.32,9.362-95.98,31.434C173.239,54.046,155.728,87.691,139.94,124,116.074,178.885,86.331,252.429,33.973,273.273c-7.615,3.037-14.712,3.371-22.566,3.9-3.815.255-8.741.334-10.633,5.189-4.554,11.69,12.274,34.351,16.971,42.245,14.991,25.216,31.24,49.292,46.606,74.171C78.694,422,94.318,446.209,103.23,473.427c14.179,43.347-31.152,68.693-29.879,110,.792,25.644,20.917,44.034,36.855,56.756,19.624,15.644,47.879,25.929,57.7,54.477,7.316,21.264-4.164,33.641-13,49.775-14.981,27.339-16,64.4-14.443,96.044,2.1,42.764,10.314,86.16,24.294,125.467,6.33,17.822,14.089,36.354,25.511,50.2,10.705,12.971,20.835,16.294,35.139,13.639,43.787-8.141,88-30.832,129.99-51.1a1609.07,1609.07,0,0,0,155.263-85.219c34.419-21.574,69.615-44.4,99.826-74.2,7.874-7.771,15.935-16.215,21.695-26.464,4.353-7.7,6.2-14.064,13.537-18.463,21.744-13.031,51.99-9.623,75.288-8.269,37.256,2.156,74.327,7.9,111.351,13.068,21.6,3.037,62.3,12.594,79.557-10.328,14.891-19.794-3.078-53.542-12.257-70.978-23.218-44.095-53.086-82.795-80.8-122.642-12.7-18.262-16.34-29.267-26.832-49.57-1.251-2.417-2.855-5.2-4.362-8.286a32.5,32.5,0,0,1-3.347-10.037C783.483,500.083,787.343,494.586,791.247,489.145Z" transform="translate(1322.77 1505.732) rotate(180)"/><path class="c" d="M730.265,442.589c29.389-39.01,64.794-71.057,96.345-107.563,14.146-16.367,28.432-33.537,39.211-53.5,5.8-10.737,11.951-24.253,10.356-37.6-4.587-38.3-58.837-34.844-80.754-37.088-32.565-3.293-69.979-6.613-98.776-27.27-18.863-13.528-25.937-33.507-22.415-59.274,3.781-27.639-4.672-47.7-23.909-63.123C626.2,37.853,595.758,29.98,567.755,24.386a467.212,467.212,0,0,0-102.081-8.879c-33.239.778-65.442-6.019-98.461-10.439C323.434-.787,278.25-3.675,234.964,8.326c-37.687,10.452-71.728,33.482-97.246,69.1C111.064,114.6,97.869,161.432,76.227,202.557c-13.5,25.651-32.323,59.584-57.544,69.555-8.41,3.326-23.745-1.161-17.026,15.2,3.841,9.357,11.028,17.565,16.707,25.214,9.175,12.361,18.655,24.381,27.984,36.571,19.884,25.986,41.179,52.527,56.082,83.3,18.778,38.742-9.135,68.558-5.733,107.841,1.828,21.14,13.87,38.012,26.614,51.266a218.144,218.144,0,0,0,26.475,22.958c9.614,7.25,21,12.772,29.384,22.141,11.951,13.333,6.764,29.117,4.523,46.354a454.1,454.1,0,0,0-2.582,91.613c2.73,37.446,9.13,75.963,22.614,109.993,5.245,13.248,11.89,27.3,21.757,36.176s20.074,8.275,31.381,5.6c33.538-7.9,67.006-26.3,98.82-43.727a994.651,994.651,0,0,0,116.135-73.951c25.732-19.152,51.55-39.842,73.078-65.807a148.2,148.2,0,0,0,17.035-24.685c3.307-6.2,5.081-14.19,9.872-18.848,14.993-14.537,45.094-10.2,62.677-9.351,35.092,1.684,69.631,9.692,104.678,11.637,19.127,1.064,49.083,3.739,63.131-16.137,13.21-18.684,1.245-48.111-6.65-66.113-15.516-35.4-36.362-66.935-55.046-99.839-7.681-13.541-16.1-27.707-21.075-43.168C715.1,462.563,722.734,452.591,730.265,442.589Z" transform="translate(1274.077 1456.301) rotate(180)"/><path class="c" d="M680.252,408.556c23.392-34.327,51.593-64.8,75.154-99.684,13.791-20.43,37.542-54.775,26.877-83.577-11.7-31.649-52.488-32.512-76.065-35.062-28.061-3.036-61.011-7.183-85.028-26.945-7.6-6.247-14.065-14.517-16.808-25.409-2.936-11.656.274-21.856.692-33.526.876-24.479-11.1-44.132-26.946-57.629-22.4-19.082-50.4-28.1-76.856-34.394A386.3,386.3,0,0,0,410.308,1.888c-29.175.122-58.043-.668-87.248-1.579C284.865-.9,246.134,1.056,209.084,13.435c-36.5,12.2-69.679,35.074-95.744,68.715C87.912,114.979,70.756,155.1,55.731,195.974c-8.526,23.2-22.93,57.865-43.266,69.583-9.048,5.217-17.923,4.859-8.306,18.422,12.109,17.079,28.429,30.781,42.455,45.389C66.845,350.447,87.585,371.94,104.567,397c10.845,16,15.678,31.534,14.931,52.256-.578,15.788-3.2,31.406-1.872,47.253,3.1,37.192,27.105,62.7,48.327,86.449,13.652,15.276,26.12,26.928,33.147,48.656,8.311,25.682,11.8,53.621,17.355,80.286,6.1,29.282,13.149,59.742,26.468,85.532,11.856,22.962,26.278,33.258,47.855,27.069,33.66-9.642,66.839-33.392,96.718-55.364,30.415-22.354,60.307-47.489,85.512-78.216,13.608-16.593,22.894-36.076,34.979-53.9,15.2-22.379,49.587-13.9,70.023-12.009,33.924,3.145,140.667,26.677,130.818-49.542-4.112-31.814-20.3-61.174-32.142-89.248-4.907-11.65-12.01-25.633-13.119-38.984C662.359,432.7,673.219,418.892,680.252,408.556Z" transform="translate(1231.292 1421.63) rotate(180)"/><path class="c" d="M633.227,386.386c17.876-31.107,39.269-60.495,54.608-94.093,9.951-21.759,19.722-50.83,6.885-73.853-14.488-25.98-46.433-32.036-69.907-35.347-24.185-3.408-53.055-6.275-72.823-25.974-6.289-6.275-11.473-14.736-12.438-24.868-.93-9.719,1.7-19.438.826-29.333-1.951-22.22-12.99-40.529-27.223-53.807C471.05,9.825,408.383,1.09,357.581.063c-25.428-.511-51.6,2.169-77.191,4.088-33.209,2.491-66.471,7.836-98.141,20.72-67.34,27.383-112.475,88.116-144,163.688-9.922,23.788-17.513,49.525-33.06,68.641-8.015,9.871-6.263,16.96,1.931,25.962,12.811,14.069,28.438,24.82,42.658,36.562C70,336.423,90.66,353.37,108.546,373.373c12.328,13.789,21.08,27.075,23.737,47.751,1.9,14.742,1.453,29.765,2.592,44.6,2.169,28.182,9.6,56.146,22.747,79.52,10.448,18.527,22.886,35.365,35.742,51.421A387.537,387.537,0,0,1,236.9,663.61c16.826,32.839,40.468,93.413,80.1,77.382,43.712-17.689,84.683-62.634,112.727-106.181,9.418-14.621,17.149-32.553,29.851-43.335,19.015-16.115,38.309-15.551,60.926-15.484,33.862.091,107.544,9.063,108.34-52.847.314-24.528-8.383-47.721-12.548-71.314C611.6,425.408,621.018,407.585,633.227,386.386Z" transform="translate(1196.617 1396.545) rotate(180)"/><path class="c" d="M591.879,364.813c17.681-40.543,57.334-107.163,27.175-152.246-15.929-23.829-44.1-32.779-67.74-38.115-19.02-4.316-41.959-5.937-56.33-24.232-10.563-13.451-5.874-33.028-9.921-49.867C480.039,79.475,468.51,62.4,454.343,49.558,414.754,13.678,359.707,2.666,312.083.323,262.622-2.1,208.123,9.25,161.579,31.1,103.545,58.348,60.068,109.945,29.663,175.287c-5.607,12.061-10.708,24.438-16.094,36.646-3.619,8.189-8.985,16.11-11.838,24.724-4.749,14.362.846,26.1,9.816,35.462,12.9,13.476,28.753,23.067,43.463,33.18,20.116,13.84,40.68,27.431,59.392,43.669,12.574,10.927,25.736,22.7,30.236,41.654,3.071,12.93,3.709,26.624,3.6,40.014-.239,28.712,1,51.93,11.977,78.226,18.07,43.171,45.857,81.99,75.212,114.289,23.038,25.349,59.491,64.727,93.058,47.778,30.117-15.175,47.732-51.5,67.577-80.867,9.647-14.277,20.484-27.316,33.218-37.471,16.054-12.8,31.167-18.174,50.188-20.269,32.014-3.527,80.285-4.443,90.181-51.305,3.654-17.294,1.568-35.207,3.484-52.726C575.636,405.126,582.958,385.264,591.879,364.813Z" transform="translate(1168.583 1372.199) rotate(180)"/><path class="c" d="M547.672,342.707c12.591-44.362,29.132-100.269-1.279-139.7-14.731-19.1-35.45-29.778-55.5-37.757-14.362-5.718-37.166-7.4-45.972-24.982-6.467-12.938-7.363-30.786-13.213-44.647A127.1,127.1,0,0,0,397.2,48.583C359.981,16.565,311.5,4.191,267.292.648,171.23-7.039,73.487,54.186,22.083,154.917,6.755,184.943-13.029,216.9,11.74,247.578,38.783,281.043,79.521,296.722,111.8,320.5c12.332,9.079,28.047,19.993,34.928,36.431,4.139,9.881,4.423,22.28,4.612,33.156.5,27.7,2.383,52.62,11.509,78.471,14.1,39.95,36.579,76.806,62.054,107,22.217,26.326,53.9,57.263,86.168,38.284,24.739-14.584,40.428-45.541,59.652-68.36,21.395-25.414,47.847-42.539,76.9-50.9,28.261-8.115,59.259-13.594,74.153-48.087,5.109-11.832,10.447-27.149,12.362-40.247a477.283,477.283,0,0,1,13.536-63.534Z" transform="translate(1142.763 1348.592) rotate(180)"/><path class="c" d="M503.563,319.413c5.828-44.8,6.472-91.506-20.591-126.811-12.631-16.471-28.6-28.173-44.742-38.775-11.878-7.8-24.146-14.381-33.018-27.17-8.22-11.841-14.468-25.591-22.4-37.742a173.581,173.581,0,0,0-37.1-41.284C310.363,19.506,267.363,6.352,226.225,1.789c-19.915-2.218-41.516-3.372-61.3,2.674-19.1,5.833-37.994,15.056-55.556,25.809-37.339,22.839-69.7,56.285-93.159,98.572C.13,157.848-8.571,186.052,12.26,215.476c23.484,33.167,60.306,51.467,90.655,72.993,20.815,14.764,44.145,29.236,48.034,60.611,3.1,24.965,5.611,48.66,13.622,72.258,11.922,34.807,29.451,66.338,51.548,92.721,20.208,24.036,45.773,44.431,74.679,31.594,22.9-10.189,40.67-33.015,60.679-49.334,22.3-18.227,46.8-28.276,72.6-36.357,23.185-7.291,45.016-18.494,60-42.281a118.712,118.712,0,0,0,8.653-15.59c3.017-6.935,2.783-13.816,3.375-21.593C497.648,359.974,500.926,339.687,503.563,319.413Z" transform="translate(1119.153 1324.985) rotate(180)"/><path class="c" d="M458.089,294.356c-.5-42.549-8.882-82.762-31.848-115.921-9.818-14.185-21.542-25.869-32.345-38.868-8.7-10.476-16.919-20.214-26.922-28.851C343.247,90.269,323.963,63.81,298.749,45.6,265.089,21.26,226.533,7.805,188.276,2.425,169.595-.2,150.3-1.122,131.4,1.847,115.166,4.4,99.618,13.348,85.2,22.5,56.932,40.445,29.488,65.943,11.135,98.2-29.327,169.32,50.448,221.031,91.392,251.311c18.83,13.929,47.6,30.062,55.317,57.654,5.514,19.711,8.873,39.756,15.974,58.859,19.074,51.3,57.795,111.637,109.4,103.6,22.076-3.432,42.2-17.374,62.812-26.733,21.224-9.639,43.128-15.012,65.186-20.909,20.617-5.507,37.049-13.345,50.365-34.358,6.364-10.033,5.8-22.047,6.37-34.358C457.741,334.846,458.313,314.509,458.089,294.356Z" transform="translate(1096.284 1303.587) rotate(180)"/><path class="c" d="M413.161,266.774c-8.288-64.225-39.077-134.34-84.349-171.638C275.564,51.262,217.875,14.312,154.252,3.694c-29.5-4.925-61.809-7.348-89.642,8.757C43.427,24.7,18.822,43.011,7.164,68.758-21.357,131.737,42.081,181.874,78.225,211.01c19.459,15.686,44.228,30.97,58.895,53.877,8.509,13.279,12.853,30.849,19.723,45.435,20.819,44.2,55.089,79.855,97.778,86.231,19.738,2.945,39.617-.7,59.209-3.595,20.052-2.964,40.355-4.574,60.28-8.705,15.907-3.3,34.653-8.9,40.512-29.671C422.008,328.4,416.544,293,413.161,266.774Z" transform="translate(1071.939 1281.458) rotate(180)"/><path class="c" d="M370.1,237.276c-12.09-60.382-37.691-119.281-80.73-155.328C266.552,62.834,240.058,49.639,214.621,36.6,185.788,21.828,155.661,10.359,124.9,4.67,86.588-2.417,24.541-8.8,4.526,44.467-15.34,97.343,34.861,144.141,64.547,170.81c19.034,17.085,39.4,32.765,57.587,51.441,9.861,10.126,17.456,21.825,25.8,33.7,23.063,32.9,55.941,58.954,89.453,72.859,32.476,13.481,72.656,19.449,106.942,14.994,14.793-1.918,25.367-8.375,29.841-26.742C380.369,291.531,375.1,262.219,370.1,237.276Z" transform="translate(1049.066 1262.276) rotate(180)"/><path class="c" d="M323.494,206.258c-12.01-53.164-37.913-101.72-75.7-133.63-42.357-35.769-96.9-55.646-147.032-65.753C74.113,1.506,16.369-13.049,2.788,28.609S28.472,111.32,51.071,133.92c27.428,27.387,57,53.83,86.537,78.4,25.656,21.365,53.041,43.208,80.84,59.707a264.633,264.633,0,0,0,48.8,22.835c12.433,4.285,28.243,10.677,41.278,7.487C341.4,294.3,329.238,231.677,323.494,206.258Z" transform="translate(1022.512 1247.521) rotate(180)"/><path class="c" d="M273.654,174.108C247.3,73.568,163.81,24.125,83.421,6.886c-18.68-4-71.045-18.425-81.488,12.287C-8.188,48.951,23.995,84.265,39.06,101c46.684,51.844,104.358,90.285,159.013,128.367,17.06,11.887,47.827,37.682,68.991,25.783C290.037,242.2,279.113,194.956,273.654,174.108Z" transform="translate(997.428 1231.292) rotate(180)"/><path class="c" d="M217.889,136.316C194.971,62.277,128.315,19.812,67.031,5.81,52.021,2.384,13.9-8.281,2.529,12.381-7.992,31.493,17.116,59.188,26.506,70.192,47.418,94.7,72.2,114.886,96.684,134.29c22.638,17.953,45.519,36.355,69.34,51.538,12.546,7.993,36.076,25.046,50.334,12.705C231.712,185.261,222.977,152.757,217.889,136.316Z" transform="translate(968.655 1212.851) rotate(180)"/><path class="c" d="M152.732,94.763C135.265,46.412,88.483,15.015,47.216,4.581c-11.1-2.8-35.1-10.069-44.471,2.844C-5.879,19.316,8.02,36.75,14.188,44.8c27.339,35.687,67.374,67.565,104.054,87.144,9.222,4.922,25.8,14.584,35.288,4.648C163.263,126.392,156.744,105.867,152.732,94.763Z" transform="translate(933.244 1192.929) rotate(180)"/><path class="c" d="M81.339,49.373C71.5,25.364,45.771,7.25,24.462,1.48,9.466-2.577-8.56.928,4.509,21.827,17.493,42.572,41.584,61.512,62,69.91,77.58,76.314,89.791,70,81.339,49.373Z" transform="translate(893.405 1167.85) rotate(180)"/><path class="c" d="M475.951,377.224c.632-47.437,21.284-96.73,11.085-145.062-8.376-39.695-50.541-43.01-75.84-60.993-20.1-14.288-31.509-39.6-42.38-63.882-9.767-21.8-18.54-44.259-28.829-65.7C333.327,27.721,321.889.5,307.445.008c-13.828-.474-26.509,20.739-34.541,33.28-10.476,16.345-19.758,33.771-29.928,50.377-17.138,28.011-37.7,48.745-61.248,68.367q-40.192,33.493-81.712,64.7c-20.379,15.362-40.9,30.609-60.487,47.488C27.244,274.808.125,294.678,0,314.2c-.06,9.317,7.172,19.635,12.049,27.082C20.3,353.893,29.7,365.419,39.139,376.7c17.571,21.006,35.887,41.06,54,61.357,23.519,26.34,45.981,52.248,66.653,82.156,21.374,30.955,41.793,62.929,62.63,94.466,14.112,21.365,28.208,45.358,48.563,58.468,25.494,16.387,46.42-.892,72.2-1.093,22.179-.176,20.543-62.911,23.362-80.355,2.828-17.656,9.062-34.093,11.477-51.789,3.012-22.093,3.052-44.7,3.793-67.026.9-27.313,1.254-53.315,25.171-63.731,13.61-5.918,28.329-7.162,42.42-10.707C458.539,396.143,475.753,392.21,475.951,377.224Z" transform="translate(489.861 1329.41) rotate(180)"/><path class="c" d="M440.7,353.293c2.325-39.764,16.059-90.652,3.071-131.7-11.1-35.074-45.8-39.621-69.166-58.045-19.29-15.2-27.878-40.065-37.52-64.5-7.736-19.6-15.238-39.384-24.019-58.355C306.6,26.72,296.715,3.116,283.259.223c-12.1-2.6-25.07,18.236-31.86,28.838C241.493,44.537,233.02,61.345,224.268,77.8c-15.377,28.9-31.126,54.9-53.627,76.13C148.035,175.25,123.3,191.2,98.308,207.793,78.754,220.777,59.3,234.138,40.721,249.129,26.88,260.288,6.982,274.573.65,294.475c-5.017,15.744,20.41,41.871,27.907,51.092,15.432,18.96,31.786,36.758,48.169,54.445,19.972,21.555,40.582,40.405,58.22,65,31.547,43.96,57.916,98.707,98.508,131.382,24.482,19.705,51.727,24.745,78.958,21.8,10.783-1.167,13.372-19.75,14.73-30.588,2.26-18.005,2.544-36.32,4.279-54.4,1.628-16.923,5.242-33,8.154-49.6,2.947-16.814,3.774-34.041,5.944-50.97,1.344-10.51,2.674-22.741,8.553-31.19,6.083-8.747,16.119-12.412,24.891-15.2C395.437,381.067,439.06,381.353,440.7,353.293Z" transform="translate(465.516 1313.917) rotate(180)"/><path class="c" d="M389.777,316.73c3.91-36.5,9.383-81.956-6.544-115.582-13.02-27.495-40.786-33.426-60.62-51.341-16.5-14.9-22.727-38.592-30.911-60.611C284.983,71.136,278.229,53,270.086,35.81,263.91,22.776,255.951,5.1,243.689.557c-10.484-3.885-22.328,13.52-28.14,22.182-9.9,14.764-17.965,31.307-25.979,47.632-13.109,26.711-25.172,55.244-43.829,76.972-18.129,21.084-39.665,33.529-61.605,47.522-16.8,10.721-33.5,21.855-49.338,34.64-12.158,9.812-27.223,21.436-33.559,37.761-5.478,14.078,8.587,30.742,15.614,40.675,11.6,16.391,24.485,31.428,37.182,46.526,13.707,16.288,28.888,31.313,42.151,48,27.892,35.116,50.175,74,84.551,100.909,22.262,17.428,52.221,33.261,78.538,30.414,18.926-2.052,17.681-53.18,19.5-69.517,2.989-26.711,8.761-54.777,17.927-79.381,7.875-21.084,26.587-27.586,43.8-32.313,10.783-2.969,22.084-4.574,32.514-9.161C385.091,338.1,388.138,332.029,389.777,316.73Z" transform="translate(428.624 1293.999) rotate(180)"/><path class="c" d="M331.689,274.539c2.328-30.857,1.8-67.345-13.275-94.038-13.215-23.38-36.743-29.535-53.477-47.953-13.058-14.369-18.19-37.8-25.213-56.8C231.14,52.514,219.112,9.6,197.457.858c-20.14-8.128-41.21,43.8-48.5,59.278-11.545,24.506-21.2,51.381-35.2,74.012-12.058,19.484-28.214,30.254-45.362,41.83C46.526,190.761,13.332,208.292,1.642,237.1c-8.713,21.468,19.624,53.385,29.3,68.259,10.12,15.538,17.741,33.956,28.182,48.946,16.48,23.654,43.184,42.7,65.232,57.232,21.439,14.137,49.274,29.783,73.59,28.852,15.982-.609,19.022-30.735,22.432-45.452,4.885-20.92,11.38-39.667,25.333-53.9,14.2-14.485,30.941-21.31,48.538-27.283,9.032-3.044,19.336-5.419,27.417-11.569C330.589,295.5,330.793,286.4,331.689,274.539Z" transform="translate(383.626 1268.915) rotate(180)"/><path class="c" d="M272.211,227.243c-.129-26.658-5.123-55.085-19.929-75.648-12.332-17.128-31.636-22.853-43.441-40.363-9.351-13.862-14.111-33.322-20.371-49.421C180.812,42.085,169.986,7.624,150.946.777,132.363-5.887,115.927,32.07,108.8,47.09,98.368,69.113,89.92,92.457,79.392,114.42c-8.248,17.231-18.334,28.337-31.765,39.442C31.862,166.906,9.865,181.356,1.445,202.937-4.627,218.562,10.07,243.53,15.406,257.3c3.577,9.245,6.852,18.636,8.651,28.658,1.4,7.8,1.54,15.026,5.6,21.726,10.218,16.853,32.627,19.054,47.831,24.61,20.193,7.373,41.618,15.752,62.75,17.352,12.988,1,19.617-13.608,27.029-23.883,8.76-12.148,21.161-20.884,31.994-30.051,14.3-12.117,29.852-19.654,45.946-27.37,7.259-3.484,15.788-6.9,21.41-13.826C272.489,247.328,272.255,236.865,272.211,227.243Z" transform="translate(340.097 1239.406) rotate(180)"/><path class="c" d="M221.524,182.646c-2.567-22.389-10.564-43.788-24.073-59.615-10.356-12.151-24.108-18.993-32.419-33.593C157.286,75.828,151.892,60.353,145.5,45.8c-6.77-15.384-16.826-41.1-32.438-45.283-16.826-4.508-29.788,21.429-36.965,35.8-9.067,18.167-15.956,37.712-24.063,56.5a160.827,160.827,0,0,1-23.111,38c-9.664,11.793-22.77,23.091-27.659,39.3-4.322,14.363,3.762,31.74,5.193,46.3C7.978,232,5.3,248.343,13.767,261.7c17.456,27.554,61.269,22.444,86.317,23.034,24.714.608,44.585-16.252,64.584-32.292,13.21-10.59,26.967-19.558,40.512-29.425C218.987,212.952,223.782,202.35,221.524,182.646Z" transform="translate(306.161 1210.634) rotate(180)"/><path class="c" d="M185.305,141.8c-7.59-32.436-31.294-49.675-48.239-74.187C123.2,47.544,112.8,5.987,89.454.49,62.942-5.75,47.072,49.313,37.854,70.56,27.627,94.123,9.412,113.29,1.838,138.234c-3.984,13.092-.562,25.309,1.557,38.4,2.324,14.376,4.07,29.063,12.093,40.63,15.792,22.761,46.63,22.6,68.844,23.229,22.992.651,43.333-14.947,61.652-30.514C165.414,193.488,193.079,175.063,185.305,141.8Z" transform="translate(285.506 1182.603) rotate(180)"/><path class="c" d="M154.888,106.443c-8.552-23.109-26.523-41.9-41.106-59.632C101.609,32.025,88.517,2.261,69.96.139c-21.812-2.5-35.031,29.28-43.613,48.772C17.9,68.058,5.729,88.278,1.051,109.3c-4.877,21.894,8.111,51.384,20.5,66.876,13.816,17.273,36.419,23.656,55.814,22.967,20.307-.7,38.94-14.976,54.32-29.788C148.125,153.519,164.834,133.269,154.888,106.443Z" transform="translate(267.8 1156.04) rotate(180)"/><path class="c" d="M124.647,80.7c-8.169-19.22-22.329-35.48-35.386-49.983C79.186,19.518,64.318.478,49.781.012,33.789-.5,20.236,15.478,13.879,31.859,7.613,48.016,1.009,68.272.072,86c-2.039,38.6,39.438,81.839,70.583,78.318C100.184,160.976,140.935,119,124.647,80.7Z" transform="translate(249.355 1134.647) rotate(180)"/><path class="c" d="M97.51,61.611C86.24,36.567,58.867.865,33.524.017,4.435-.952-2.868,38.778.924,67.57c3.852,29.385,37.389,71.919,64.131,66.172C91.156,128.134,110.866,91.311,97.51,61.611Z" transform="translate(233.126 1117.678) rotate(180)"/><path class="c" d="M73.452,47.972C63.91,27,43.549.814,22.313.019-2.992-.918-2.513,32.627,3.225,53.5c5.967,21.676,32.245,58.7,54.4,52.855C79.17,100.65,82.6,68.069,73.452,47.972Z" transform="translate(220.585 1108.09) rotate(180)"/><path class="c" d="M50.878,34.492C44.58,19.53,28.819.62,13.832.015-4.484-.713-.923,25.892,3.809,38.733c5.625,15.279,24.48,41.828,40.3,37.527C59.689,72.024,56.074,46.819,50.878,34.492Z" transform="translate(208.043 1097.022) rotate(180)"/><path class="c" d="M219.157,429.739c40.54,30.018,86.37,54.8,129.587,79.982,63.157,36.8,127.243,72.611,193.6,100.022,35.579,14.7,81.683,35.88,119.859,24.368,13.958-4.205,26.687-16.934,39.2-25.2,17.257-11.4,34.768-22.241,52.249-33.1,35.066-21.773,70.242-43.328,104.707-66.5,16.6-11.16,32.7-25.215,49.975-34.736,10.1-5.568,22.179-2.963,32.967-2.611,24.99.82,49.965,2.374,74.94,3.7,30.548,1.615,61.166,3.333,91.749,2.7,13.8-.3,47.576,2.7,55.17-11.8,4.086-7.808-5.543-21.888-10.007-28.4-8.2-11.974-17.615-22.762-26.911-33.443-21.5-24.7-44.327-48.221-63.436-75.811-9.818-14.183-22.681-31.512-16.272-50.875,6.469-19.557,17.675-36.491,24.512-55.981,7.872-22.427,11.14-45.768,14.854-69.551,2.752-17.577,9.161-33.151,15.187-49.355,6.658-17.912,13.555-35.975,18.178-54.864,3.055-12.477,7.987-34.924-2.7-42.824-15.187-11.233-43.666-2.14-60.977,1.172C1031.667,11.184,1007.917,17,984.056,22.01c-17.321,3.643-34.7,7.638-52.314,8.063-28.388.686-56.872-1.688-85.185-3.9-52.428-4.092-104.481-9.642-157.085-9.642-46.087,0-152.592,65.069-177.522,76.527-49.761,22.87-100.846,44.554-147.934,74.985-12.739,8.239-32.345,19.217-39.047,36.175-4.135,10.449-2.235,16.491-11.988,23.224-13.306,9.186-30.354,12.793-45.083,16.9-23.721,6.618-47.626,12.222-71.457,18.215-48.2,12.088-96.067,25.761-144.063,38.918-14.51,3.977-32.066,4.857-45.9,11.864-8.917,4.5-7.992,10.164-1.09,17,12.107,12,29.075,18.658,43.379,25.5,20.952,10.024,42.252,18.968,63.559,27.784s42.725,17.359,64.043,26.19C190.445,415.643,206.5,420.371,219.157,429.739Z" transform="translate(1237.927 637.409) rotate(180)"/><path class="c" d="M159.572,398.053c42.883,30.079,90.485,54.042,136.374,77.421,58.73,29.94,118.79,58,180.673,76.716,36.331,10.981,79.2,23.105,116.324,10.513,13.244-4.494,23.139-14.593,34.492-23.507,12.941-10.173,26.379-19.493,39.817-28.669Q708.747,482.2,751.118,455.8c14.962-9.358,31.428-21.89,48.333-25.136,13.439-2.582,28.7,1.155,42.2,2.243,24.309,1.958,48.612,3.976,72.93,5.691,28.061,1.976,56.2,3.8,84.324,3.484,15.673-.176,42.58,2.736,53.664-9.625,9.67-10.787-25.538-49.8-31.73-57.21-19.336-23.141-39.673-45.177-57.671-69.924-10.636-14.593-23.587-32.341-28.071-51.683-3.817-16.484,3.548-35.264,7.9-50.5,5.44-19.086,9.83-38.872,16.151-57.556,5.629-16.648,14.588-31.478,22.457-46.612,8.655-16.648,17.42-33.567,23.845-51.731,3.937-11.175,10.452-29.891,2.628-40.543-9.039-12.282-36.9-4.256-48.353-2.508-23.234,3.6-46.287,8.95-69.362,13.742C852.037,25.885,815.5,32.841,776.474,31.175,725.652,29,674.88,23.879,624.069,21.045c-18.764-1.058-37.826-3.186-56.606-2.037-10.766.664-18.96,4.676-25.224,13.729-8.55,12.355-28.245,19.2-41.943,26.285-21.357,11.048-42.983,21.321-64.552,31.733-47.343,22.862-95.6,44.9-140.5,74.466-14.2,9.352-30.469,19.78-40.977,35.229-5.863,8.616-4.385,16.916-7.963,26.073-4.739,12.045-20.317,17.484-29.629,21.421-17.973,7.613-36.682,12.714-55.247,17.493-42.007,10.811-84.114,17.919-126.8,23.154-10,1.216-49.4,5.43-28.708,25.738,22.867,22.448,55.876,33.44,82.787,46.091C112.952,371.792,137.215,382.371,159.572,398.053Z" transform="translate(1144.982 612.326) rotate(180)"/><path class="c" d="M112.592,354.126c40.309,26.463,84.962,46.2,128.374,65.091,52.68,22.917,106.677,43.345,161.934,54.789,34.706,7.181,72.972,12.7,107.445.764,23.542-8.147,41.756-30.174,62.431-45.325s42.192-29.377,64.349-41.233c13.752-7.357,28.545-14.77,43.846-13.8,37.2,2.356,74.364,7.968,111.608,10.7,24.641,1.821,49.327,3.32,74.04,2.871,14.9-.267,35.376.826,48.57-8.742,14.584-10.581-63.069-100.927-70.408-111.1-18.4-25.5-40.682-59.336-37.125-95.6,3.4-34.664,18.148-60.544,34.832-87.7,9.467-15.451,39.826-56.726,28.575-76.82C864.639-3.46,843.453.516,833.388,1.3,813.552,2.841,793.827,6.156,774.1,9.033c-28.772,4.17-58.33,10.612-87.224,12.5-20.12,1.311-40.358-.443-60.513-.48-28.9-.049-57.8.221-86.7.534-24.265.267-48.734,0-72.914,2.841C451.717,26.177,440.308,30.1,429.525,41.2c-9.382,9.653-23.534,15.3-35.5,21.442-19.751,10.132-39.761,19.524-59.705,29.067-41.756,19.985-84,39.551-123.965,64.527-18.246,11.4-48.923,27.349-53.2,54.977-1.545,9.96-2.681,14.266-10.652,19.93-11.315,8.041-24.868,11.662-37.563,14.813-29.6,7.346-60.052,6.247-89.6,13.507-12.033,2.993-27.739,9.452-14.006,24.241C21.368,301,44.7,310.509,63.9,321.193c9.586,5.33,19.462,10.32,28.565,16.829C99.458,343.034,105.442,349.466,112.592,354.126Z" transform="translate(1038.738 573.961) rotate(180)"/><path class="c" d="M78.275,306.029c37.24,21.493,77.684,37.12,117.4,51.208,44.117,15.627,89.295,28.571,135.072,34.078,31.609,3.816,65.29,4.943,95.966-6.736,19.4-7.388,32.554-22.923,49.249-35.952,25.2-19.692,52.458-35.3,82.728-31.5q50.9,6.371,102.145,9.56c20.605,1.284,41.29,2.246,61.919,1.351,13.043-.56,29.848-1.5,41.195-8.714,15.183-9.657-41.847-83.144-48.956-93.853-17.632-26.559-30.554-54.433-38.106-87.342-6.159-26.854,6.422-47.964,19.4-68.052,8.069-12.475,34.141-43.851,25.977-60.052-4.477-8.933-19.232-8.471-27.156-8.927-15.1-.864-30.271.036-45.371.432-22.3.609-46.04-3.572-68.153-.207-49.005,7.451-97.886,13.9-147.195,19-27.181,2.812-54.527,5.367-81.465,10.789-9.671,1.948-19.66,4.01-28.823,8.416-5.9,2.83-9.109,7.649-14.083,11.6-23.719,18.828-54.681,28.516-81.4,40.583-35.514,16.041-71.217,31.832-105.786,50.782-18.182,9.968-43.578,21.42-56.089,41.764-3.781,6.146-2.169,11.066-4.547,16.972-2.736,6.815-11.048,8.848-16.416,10.747C33.607,216.3-17.388,222.824,6.112,248.136c11.214,12.055,25.5,19.789,38.141,29.264,4.574,3.432,9.039,6.882,12.854,11.513C63.485,296.676,69.773,301.106,78.275,306.029Z" transform="translate(928.075 534.127) rotate(180)"/><path class="c" d="M74.786,271.638c73.517,34.776,159.675,58.467,239.827,53.877,26.654-1.532,55.331-6.645,78.437-24.14,13.624-10.334,24.512-22,40.876-25.734,11.814-2.693,24.536.364,36.419,1.471,17.213,1.6,34.436,3.039,51.674,4.2,21.37,1.416,42.81,2.508,64.22,1.927,15.3-.42,36.424.055,49.714-9.976,15.867-11.964-24.52-68.088-30.2-78.088-13.774-24.24-23.429-47.722-26.918-76.933-1.027-8.511-4.486-17.234-4.038-25.813.468-8.76,4.891-16.56,8.972-23.448,5.339-9.028,23.863-30.438,18.559-41.449-2.931-6.079-13.933-6.846-19.636-8.134-10.7-2.435-21.549-3.739-32.313-5.672C532.118,10.434,513.988-.3,495.664.006,446.389.809,396.4,19.46,348.112,29.7,319.4,35.813,290.5,41.36,262.143,49.631c-8.973,2.62-18.215,5.332-26.744,9.775-5.952,3.1-9.775,8.626-15.289,12.1-21.141,13.332-45.452,21.423-68.153,30.395-29.471,11.672-59.041,22.992-88.308,35.417C45.3,145.105,21.716,151.957,5.909,166.4c-11.545,10.55-3.654,13.7,2.435,23.527,3.11,5.009,2.392,9.945,3.743,15.617,1.932,8.1,7.388,13.93,12.5,19.173,7.054,7.24,16.452,13.206,22.218,22.08,2.034,3.125,1.939,7,3.584,9.727C55.176,264.456,67.874,268.371,74.786,271.638Z" transform="translate(843.24 509.044) rotate(180)"/><path class="c" d="M105.733,231.952c59.669,21.862,126.057,34.311,189.128,28.534,21.944-2.013,44.022-6.689,64.464-16.961,9.3-4.658,16.281-9.852,26.472-10.131,23.646-.645,47.363,1.611,71.008,2.153,16.919.39,33.921.529,50.8-1.131,11.287-1.107,26.547-2.435,35.792-10.879,13.435-12.3-10.817-54.124-15.754-65.678-8.181-19.162-16.3-40.465-13.052-62.634,1-6.781,2.757-12.771,2.986-19.685.221-5.942-.393-11.427,1.334-17.107,2.135-7.042,11.629-17.97,8.365-24.453-2.224-4.426-8.823-4.634-13.211-6.049a118.3,118.3,0,0,1-20.78-9.012C486.218,15,480.2,8.95,472.883,5.711,461,.469,447.7-.024,435.209,0c-49.834.1-100.3,12.1-148.873,24.641-25.293,6.531-50.726,13.495-75.307,23.4-7.464,3.01-15.923,6.033-22.486,11.591-4.1,3.46-6.872,7.8-11.524,10.4-39.744,22.221-85.692,30.473-127.883,46.522C38.154,120.735-22.708,141.843,9.114,161.7c19.329,12.065,39.758,17.551,57.4,34.056,5.374,5.017,8.957,9.171,11.057,16.827,1.383,5.1-1.945,2.508,2.7,7.839C85.908,226.819,98.783,229.4,105.733,231.952Z" transform="translate(796.023 481.743) rotate(180)"/><path class="c" d="M109.493,190.256c69.857,17.845,143.835,18.694,214.795,2.877,17.888-3.984,36.5-3.031,54.613-4.044,17.594-.97,48.875,1.049,61.654-15.462,9.266-11.969-.789-37.4-4.266-50.794-4.431-17.057-8.3-34.674-1.028-51.242,4.261-9.7,10.1-18.936,14.67-28.547,2.185-4.59,6.686-11.624,4.81-15.971-3.1-7.173-17.624-10.193-24.669-13.574C407.552,2.683,383.706-.072,359.63,0c-44.469.139-89.167,7.561-132.788,17.626-20.067,4.632-40.417,9.574-59.773,17.626-10.953,4.553-19.034,13.34-29.49,18.548C103.9,70.586,67.723,79.554,33.468,94.9c-9.915,4.444-46.949,19.24-28.292,36.684,18.063,16.887,44.412,14.88,63.191,30.764,2.125,1.819,4.755,4,5.988,6.935.728,1.758-.554,5.105,0,6.106C80.12,186.266,100.629,187.994,109.493,190.256Z" transform="translate(737.742 452.975) rotate(180)"/><path class="c" d="M87.616,154.114c35.839,6,72.465,7.488,108.908,7.866,19.919.207,41.8,1.756,61.3-4.4a316.9,316.9,0,0,1,35.879-9.5c13.279-2.572,34.661-4.444,42.748-18.387,6.041-10.419,1.9-31.836,1.681-44.5-.235-13.894,2.1-24.2,10.137-34.14,5.054-6.261,28.236-28.989,25.557-35.542-2.549-6.243-18.7-7.2-25.687-8.822C326.06,1.539,303.69-.25,281.237.028A520.641,520.641,0,0,0,177.323,12.22c-14.153,3.091-28.779,6.291-42.3,12.468-9.1,4.164-16.7,11.546-25.741,15.85C83.382,52.884,55.994,61.269,30,73.837c-8.342,4.042-35.52,14.8-29,31.384,5.433,13.845,23.91,18.055,32.99,27.337C49.433,148.384,67.922,150.823,87.616,154.114Z" transform="translate(670.607 428.628) rotate(180)"/><path class="c" d="M54.863,123.292a640.191,640.191,0,0,0,86.367,5.793c18.617.055,38.257.364,56.526-4.743,9.177-2.563,17.151-8.558,25.836-12.832,8.943-4.4,21.285-9.3,25.15-19.383,3.632-9.473,2.275-23.294,5.465-34.717,2.837-10.135,8.774-16.4,15.169-23.246,4.074-4.378,25-23.331,22.575-27.518-2.594-4.482-15.158-4.117-21.7-4.736A413.547,413.547,0,0,0,216.1.253c-24.653.923-49.5,3.5-73.722,9.327C125.186,13.711,112.227,23.547,96.2,30.761,75.446,40.13,53.942,47.54,33.383,57.79,23.14,62.9,7.977,69.47,2.73,82.654.713,87.706-1.245,100.557,1,105.608c2.7,6.072,12.739,8.647,17.479,10.208C30.354,119.708,42.78,121.6,54.863,123.292Z" transform="translate(615.277 405.76) rotate(180)"/><path class="c" d="M45.347,98.1c35.538,4.881,75.692,9.023,111.339-.8,14.406-3.965,28.752-15.714,34.626-31.723,3.044-8.279,3.7-18.132,8.244-26.155a108.776,108.776,0,0,1,11.872-16.278c2.379-2.819,17.623-18.261,14.681-21.018-3.1-2.91-10.717-1.959-15.918-2.032a350.951,350.951,0,0,0-37.382,1.562C158.532,2.982,143.918,4.7,130.073,9.366,118.9,13.148,108.727,21.111,97.852,25.839,69.26,38.359,39.13,48.171,12.288,66.713c-5.711,3.942-17,9.841-10.142,18.749C10.681,96.56,34.367,96.6,45.347,98.1Z" transform="translate(579.127 390.262) rotate(180)"/><path class="c" d="M32.061,76.024c25.3,3.417,53.379,5.023,78.785-2.018,12.866-3.563,24.345-10.985,29.947-25.351,4.01-10.24,5.09-21.667,10.57-31.507,1.94-3.472,9.067-13.214,5.554-15.341-7.518-4.574-24.3.691-34.729,3.09-15.7,3.636-28.8,13.814-43.73,19.849C55.563,34,26.553,38.943,5.688,54.715-14.421,69.965,24.678,75.024,32.061,76.024Z" transform="translate(534.862 376.986) rotate(180)"/><path class="d" d="M18.208,52.916c21.468,3.074,59.657,4.592,71.907-20.14C92.388,28.183,98.663,2.83,92.6.566c-5-1.858-12.843,1.21-18.49,4.078C63.6,9.951,53.747,15.736,42.892,20.116c-9.242,3.727-18.706,7.164-27.828,11.5-3.871,1.819-11.147,4.023-13.576,8.16C-5.048,50.907,11.671,51.984,18.208,52.916Z" transform="translate(492.074 362.235) rotate(180)"/></g></g></svg>